solid OpenSCAD_Model
  facet normal 0 -0 -1
    outer loop
      vertex 10.35 17.9267 0
      vertex 19.7 0 0
      vertex 9.84999 17.0607 0
    endloop
  endfacet
  facet normal -0 0 -1
    outer loop
      vertex 9.84999 -17.0607 0
      vertex -10.35 -17.9267 0
      vertex -9.84999 -17.0607 0
    endloop
  endfacet
  facet normal -0 0 -1
    outer loop
      vertex 20.7 0 0
      vertex 10.35 -17.9267 0
      vertex 19.7 0 0
    endloop
  endfacet
  facet normal 0 -0 -1
    outer loop
      vertex 9.84999 -17.0607 0
      vertex 10.35 -17.9267 0
      vertex -10.35 -17.9267 0
    endloop
  endfacet
  facet normal -0 0 -1
    outer loop
      vertex -9.84999 -17.0607 0
      vertex -10.35 -17.9267 0
      vertex -19.7 0 0
    endloop
  endfacet
  facet normal 0 0 -1
    outer loop
      vertex -10.35 17.9267 0
      vertex -19.7 0 0
      vertex -20.7 0 0
    endloop
  endfacet
  facet normal -0 -0 -1
    outer loop
      vertex -19.7 0 0
      vertex -10.35 -17.9267 0
      vertex -20.7 0 0
    endloop
  endfacet
  facet normal 0 0 -1
    outer loop
      vertex 9.84999 17.0607 0
      vertex -9.84999 17.0607 0
      vertex -10.35 17.9267 0
    endloop
  endfacet
  facet normal -0 0 -1
    outer loop
      vertex -9.84999 17.0607 0
      vertex -19.7 0 0
      vertex -10.35 17.9267 0
    endloop
  endfacet
  facet normal 0 0 -1
    outer loop
      vertex 9.84999 17.0607 0
      vertex -10.35 17.9267 0
      vertex 10.35 17.9267 0
    endloop
  endfacet
  facet normal 0 0 -1
    outer loop
      vertex 9.84999 -17.0607 0
      vertex 19.7 0 0
      vertex 10.35 -17.9267 0
    endloop
  endfacet
  facet normal 0 0 -1
    outer loop
      vertex 19.7 0 0
      vertex 10.35 17.9267 0
      vertex 20.7 0 0
    endloop
  endfacet
  facet normal -0 0 1
    outer loop
      vertex 9.84999 17.0607 90
      vertex 19.7 0 90
      vertex 10.35 17.9267 90
    endloop
  endfacet
  facet normal -0 0 1
    outer loop
      vertex -9.84999 -17.0607 90
      vertex -10.35 -17.9267 90
      vertex 9.84999 -17.0607 90
    endloop
  endfacet
  facet normal -0 0 1
    outer loop
      vertex 19.7 0 90
      vertex 10.35 -17.9267 90
      vertex 20.7 0 90
    endloop
  endfacet
  facet normal 0 0 1
    outer loop
      vertex -10.35 -17.9267 90
      vertex 10.35 -17.9267 90
      vertex 9.84999 -17.0607 90
    endloop
  endfacet
  facet normal 0 0 1
    outer loop
      vertex -19.7 0 90
      vertex -10.35 -17.9267 90
      vertex -9.84999 -17.0607 90
    endloop
  endfacet
  facet normal 0 0 1
    outer loop
      vertex -20.7 0 90
      vertex -19.7 0 90
      vertex -10.35 17.9267 90
    endloop
  endfacet
  facet normal -0 0 1
    outer loop
      vertex -20.7 0 90
      vertex -10.35 -17.9267 90
      vertex -19.7 0 90
    endloop
  endfacet
  facet normal 0 0 1
    outer loop
      vertex -10.35 17.9267 90
      vertex -9.84999 17.0607 90
      vertex 9.84999 17.0607 90
    endloop
  endfacet
  facet normal 0 0 1
    outer loop
      vertex -10.35 17.9267 90
      vertex -19.7 0 90
      vertex -9.84999 17.0607 90
    endloop
  endfacet
  facet normal 0 0 1
    outer loop
      vertex 10.35 17.9267 90
      vertex -10.35 17.9267 90
      vertex 9.84999 17.0607 90
    endloop
  endfacet
  facet normal 0 -0 1
    outer loop
      vertex 10.35 -17.9267 90
      vertex 19.7 0 90
      vertex 9.84999 -17.0607 90
    endloop
  endfacet
  facet normal 0 0 1
    outer loop
      vertex 20.7 0 90
      vertex 10.35 17.9267 90
      vertex 19.7 0 90
    endloop
  endfacet
  facet normal 0.866025 0.500001 0
    outer loop
      vertex 10.35 17.9267 0
      vertex 20.7 0 90
      vertex 20.7 0 0
    endloop
  endfacet
  facet normal 0.866025 0.500001 -0
    outer loop
      vertex 10.35 17.9267 0
      vertex 10.35 17.9267 90
      vertex 20.7 0 90
    endloop
  endfacet
  facet normal 0 1 0
    outer loop
      vertex -10.35 17.9267 0
      vertex 10.35 17.9267 90
      vertex 10.35 17.9267 0
    endloop
  endfacet
  facet normal 0 1 0
    outer loop
      vertex -10.35 17.9267 0
      vertex -10.35 17.9267 90
      vertex 10.35 17.9267 90
    endloop
  endfacet
  facet normal -0.866025 0.500001 0
    outer loop
      vertex -20.7 0 0
      vertex -10.35 17.9267 90
      vertex -10.35 17.9267 0
    endloop
  endfacet
  facet normal -0.866025 0.500001 0
    outer loop
      vertex -20.7 0 0
      vertex -20.7 0 90
      vertex -10.35 17.9267 90
    endloop
  endfacet
  facet normal -0.866025 -0.500001 0
    outer loop
      vertex -10.35 -17.9267 0
      vertex -20.7 0 90
      vertex -20.7 0 0
    endloop
  endfacet
  facet normal -0.866025 -0.500001 0
    outer loop
      vertex -10.35 -17.9267 0
      vertex -10.35 -17.9267 90
      vertex -20.7 0 90
    endloop
  endfacet
  facet normal 0 -1 0
    outer loop
      vertex 10.35 -17.9267 0
      vertex -10.35 -17.9267 90
      vertex -10.35 -17.9267 0
    endloop
  endfacet
  facet normal 0 -1 0
    outer loop
      vertex 10.35 -17.9267 0
      vertex 10.35 -17.9267 90
      vertex -10.35 -17.9267 90
    endloop
  endfacet
  facet normal 0.866025 -0.500001 0
    outer loop
      vertex 20.7 0 0
      vertex 10.35 -17.9267 90
      vertex 10.35 -17.9267 0
    endloop
  endfacet
  facet normal 0.866025 -0.500001 0
    outer loop
      vertex 20.7 0 0
      vertex 20.7 0 90
      vertex 10.35 -17.9267 90
    endloop
  endfacet
  facet normal 0.866025 0.5 -0
    outer loop
      vertex -19.7 0 0
      vertex -19.7 0 90
      vertex -9.84999 -17.0607 0
    endloop
  endfacet
  facet normal 0.866025 0.5 0
    outer loop
      vertex -9.84999 -17.0607 90
      vertex -9.84999 -17.0607 0
      vertex -19.7 0 90
    endloop
  endfacet
  facet normal 0.866025 -0.5 0
    outer loop
      vertex -9.84999 17.0607 0
      vertex -9.84999 17.0607 90
      vertex -19.7 0 0
    endloop
  endfacet
  facet normal 0.866025 -0.5 0
    outer loop
      vertex -19.7 0 90
      vertex -19.7 0 0
      vertex -9.84999 17.0607 90
    endloop
  endfacet
  facet normal 0 -1 0
    outer loop
      vertex 9.84999 17.0607 0
      vertex 9.84999 17.0607 90
      vertex -9.84999 17.0607 0
    endloop
  endfacet
  facet normal 0 -1 0
    outer loop
      vertex -9.84999 17.0607 90
      vertex -9.84999 17.0607 0
      vertex 9.84999 17.0607 90
    endloop
  endfacet
  facet normal -0.866025 -0.5 0
    outer loop
      vertex 19.7 0 0
      vertex 19.7 0 90
      vertex 9.84999 17.0607 0
    endloop
  endfacet
  facet normal -0.866025 -0.5 -0
    outer loop
      vertex 9.84999 17.0607 90
      vertex 9.84999 17.0607 0
      vertex 19.7 0 90
    endloop
  endfacet
  facet normal -0.866025 0.5 0
    outer loop
      vertex 9.84999 -17.0607 0
      vertex 9.84999 -17.0607 90
      vertex 19.7 0 0
    endloop
  endfacet
  facet normal -0.866025 0.5 0
    outer loop
      vertex 19.7 0 90
      vertex 19.7 0 0
      vertex 9.84999 -17.0607 90
    endloop
  endfacet
  facet normal 0 1 0
    outer loop
      vertex -9.84999 -17.0607 0
      vertex -9.84999 -17.0607 90
      vertex 9.84999 -17.0607 0
    endloop
  endfacet
  facet normal 0 1 0
    outer loop
      vertex 9.84999 -17.0607 90
      vertex 9.84999 -17.0607 0
      vertex -9.84999 -17.0607 90
    endloop
  endfacet
endsolid OpenSCAD_Model
